# Blender v3.5.1 OBJ File: ''
# www.blender.org
mtllib Basket.mtl
o _0_0_node__0_0
v 0.000000 0.000000 0.150000
v 0.000000 0.300000 0.150000
v -1.804490 0.000000 0.150000
v -1.996890 0.300000 0.150000
v -1.996890 0.300000 0.150000
v 0.000000 0.300000 0.150000
v -1.996890 0.300000 -0.150000
v 0.000000 0.300000 -0.150000
v -1.996890 0.300000 -0.150000
v 0.000000 0.300000 -0.150000
v -1.804490 -0.000000 -0.150000
v 0.000000 -0.000000 -0.150000
v -1.996890 -1.662430 -0.150000
v -1.804490 -1.662430 -0.150000
v -1.996890 -1.662430 0.150000
v -1.804490 -1.662430 0.150000
v -1.804490 -0.000000 -0.150000
v 0.000000 -0.000000 -0.150000
v -1.804490 0.000000 0.150000
v 0.000000 0.000000 0.150000
v 1.804490 -1.662430 -0.150000
v 1.996890 -1.662430 -0.150000
v 1.804490 -1.662430 0.150000
v 1.996890 -1.662430 0.150000
v -1.996890 0.300000 -0.150000
v -1.804490 -0.000000 -0.150000
v -1.996890 -1.662430 -0.150000
v -1.804490 -1.662430 -0.150000
v -1.804490 -1.662430 -0.150000
v -1.804490 -1.662430 0.150000
v -1.996890 -1.662430 0.150000
v -1.804490 -1.662430 0.150000
v -1.996890 -1.662430 0.150000
v -1.996890 -1.662430 -0.150000
v 1.996890 0.300000 -0.150000
v 1.996890 -1.662430 -0.150000
v 1.804490 -0.000000 -0.150000
v 1.804490 -1.662430 -0.150000
v 1.996890 0.300000 -0.150000
v 1.996890 0.300000 0.150000
v 1.996890 -1.662430 -0.150000
v 1.996890 -1.662430 0.150000
v 1.996890 0.300000 0.150000
v 1.804490 0.000000 0.150000
v 1.996890 -1.662430 0.150000
v 1.804490 -1.662430 0.150000
v 1.804490 0.000000 0.150000
v 1.804490 -0.000000 -0.150000
v 1.804490 -1.662430 0.150000
v 1.804490 -1.662430 -0.150000
v 0.000000 -4.852360 2.462410
v 0.000000 -1.361230 3.007000
v -1.798480 -4.852360 2.462410
v -2.208910 -1.361230 3.007000
v -1.598480 -4.668050 2.262410
v 0.000000 -4.668050 2.262410
v -1.598480 -4.668050 0.000000
v 0.000000 -4.668050 0.000000
v -2.208910 -1.361230 -3.007000
v 0.000000 -1.361230 -3.007000
v -1.798480 -4.852360 -2.462409
v 0.000000 -4.852360 -2.462409
v -1.798480 -4.852360 0.000000
v 0.000000 -4.852360 0.000000
v -1.798480 -4.852360 2.462410
v 0.000000 -4.852360 2.462410
v 1.798480 -4.852360 0.000000
v 2.208910 -1.361230 0.000000
v 1.798480 -4.852360 2.462410
v 2.208910 -1.361230 3.007000
v -1.798480 -4.852360 0.000000
v -1.798480 -4.852360 2.462410
v -2.208910 -1.361230 0.000000
v -2.208910 -1.361230 3.007000
v -2.208910 -1.361230 3.007000
v 0.000000 -1.361230 3.007000
v -2.008910 -1.361230 2.807000
v 0.000000 -1.361230 2.807000
v 2.208910 -1.361230 3.007000
v 2.208910 -1.361230 0.000000
v 2.008910 -1.361230 2.807000
v 2.008910 -1.361230 0.000000
v -2.208910 -1.361230 -3.007000
v -2.008910 -1.361230 -2.807000
v 0.000000 -1.361230 -3.007000
v 0.000000 -1.361230 -2.807000
v -2.208910 -1.361230 3.007000
v -2.008910 -1.361230 2.807000
v -2.208910 -1.361230 0.000000
v -2.008910 -1.361230 0.000000
v -2.008910 -1.361230 2.807000
v 0.000000 -1.361230 2.807000
v -1.598480 -4.668050 2.262410
v 0.000000 -4.668050 2.262410
v 2.008910 -1.361230 2.807000
v 2.008910 -1.361230 0.000000
v 1.598480 -4.668050 2.262410
v 1.598480 -4.668050 0.000000
v -2.008910 -1.361230 -2.807000
v -1.598480 -4.668050 -2.262410
v 0.000000 -1.361230 -2.807000
v 0.000000 -4.668050 -2.262410
v -2.008910 -1.361230 2.807000
v -1.598480 -4.668050 2.262410
v -2.008910 -1.361230 0.000000
v -1.598480 -4.668050 0.000000
v 2.208910 -1.361230 3.007000
v 2.008910 -1.361230 2.807000
v 1.598480 -4.668050 2.262410
v 2.008910 -1.361230 2.807000
v 1.598480 -4.668050 0.000000
v 1.598480 -4.668050 2.262410
v 2.008910 -1.361230 -2.807000
v 1.598480 -4.668050 -2.262410
v 2.208910 -1.361230 -3.007000
v 2.008910 -1.361230 -2.807000
v 1.798480 -4.852360 -2.462409
v 2.208910 -1.361230 -3.007000
v 1.798480 -4.852360 2.462410
v 1.798480 -4.852360 0.000000
v 1.798480 -4.852360 2.462410
v 2.208910 -1.361230 3.007000
v 1.804490 -0.000000 -0.150000
v 1.996890 0.300000 -0.150000
v 2.008910 -1.361230 -2.807000
v 1.598480 -4.668050 -2.262410
v 0.000000 -4.668050 -2.262410
v 1.598480 -4.668050 -2.262410
v -1.598480 -4.668050 -2.262410
v -2.008910 -1.361230 -2.807000
v -1.598480 -4.668050 -2.262410
v -2.208910 -1.361230 -3.007000
v -2.008910 -1.361230 -2.807000
v -1.798480 -4.852360 -2.462409
v -2.208910 -1.361230 -3.007000
v -1.798480 -4.852360 -2.462409
v 0.000000 -4.852360 -2.462409
v 1.798480 -4.852360 -2.462409
v 1.798480 -4.852360 -2.462409
v 2.208910 -1.361230 -3.007000
v 2.008910 -1.361230 -2.807000
v 2.208910 -1.361230 -3.007000
vt 0.561716 0.656766
vt 0.075211 0.656766
vt 0.526399 0.692084
vt 0.075211 0.692084
vt 0.562030 0.657342
vt -0.141621 0.657342
vt 0.524616 0.693165
vt -0.141621 0.693165
vt 0.562030 0.656766
vt 0.526712 0.692084
vt 0.075211 0.656766
vt 0.075211 0.692084
vt 0.558308 0.657342
vt 0.522462 0.693165
vt -0.141621 0.657342
vt -0.141621 0.693165
vt 0.562030 0.656766
vt 0.526712 0.692084
vt 0.561716 0.656766
vt 0.526399 0.692084
vt 0.562030 0.657342
vt 0.524616 0.693165
vt 0.522462 0.693165
vt 0.558308 0.657342
vt 0.001169 0.900586
vt 0.001168 0.973451
vt 0.458308 0.900586
vt 0.553810 0.973451
vt 0.958628 0.738051
vt 0.958628 0.971971
vt 0.877778 0.738051
vt 0.877778 0.971971
vt 0.458308 0.900586
vt 0.001169 0.900586
vt 0.553810 0.973451
vt 0.001168 0.973451
vt 0.639003 0.893195
vt 0.706098 0.893195
vt 0.639003 0.954971
vt 0.706098 0.954971
vt 0.836575 0.738051
vt 0.836575 0.537708
vt 0.757708 0.738051
vt 0.757708 0.537708
vt 0.639003 0.893195
vt 0.706098 0.893195
vt 0.639003 0.954971
vt 0.706098 0.954971
vt 0.553810 0.973451
vt 0.458308 0.900586
vt 0.553810 0.730787
vt 0.458306 0.730787
vt 0.836575 0.971971
vt 0.757708 0.971971
vt 0.553810 0.730787
vt 0.458306 0.730787
vt 0.958628 0.537708
vt 0.877778 0.537708
vt 0.553810 0.973451
vt 0.553810 0.730787
vt 0.458308 0.900586
vt 0.458306 0.730787
vt 0.877778 0.738051
vt 0.958628 0.738051
vt 0.877778 0.537708
vt 0.958628 0.537708
vt 0.553810 0.973451
vt 0.458308 0.900586
vt 0.553810 0.730787
vt 0.458306 0.730787
vt 0.757708 0.738051
vt 0.836575 0.738051
vt 0.757708 0.971971
vt 0.836575 0.971971
vt 0.075211 0.015459
vt 0.075211 0.656766
vt 0.489240 0.015459
vt 0.561716 0.656766
vt 0.631013 0.505125
vt 0.998513 0.505125
vt 0.631013 0.000287
vt 0.998513 0.000287
vt 0.562030 0.656766
vt 0.075211 0.656766
vt 0.489553 0.015459
vt 0.075211 0.015459
vt 0.631013 0.000287
vt 0.998513 0.000287
vt 0.631013 0.505125
vt 0.998513 0.505125
vt -0.141620 0.015459
vt -0.141621 0.657342
vt 0.489240 0.015459
vt 0.562030 0.657342
vt -0.141620 0.015459
vt 0.489375 0.015459
vt -0.141621 0.657342
vt 0.558308 0.657342
vt 0.562030 0.656766
vt 0.075211 0.656766
vt 0.489553 0.015459
vt 0.075211 0.015459
vt 0.558308 0.657342
vt -0.141621 0.657342
vt 0.489375 0.015459
vt -0.141620 0.015459
vt 0.561716 0.656766
vt 0.489240 0.015459
vt 0.075211 0.656766
vt 0.075211 0.015459
vt 0.562030 0.657342
vt 0.489240 0.015459
vt -0.141621 0.657342
vt -0.141620 0.015459
vt 0.489240 0.015459
vt 0.561716 0.656766
vt 0.631013 0.000287
vt 0.631013 0.505125
vt 0.562030 0.656766
vt 0.489553 0.015459
vt 0.489240 0.015459
vt 0.561716 0.656766
vt 0.631013 0.505125
vt 0.631013 0.000287
vt 0.489553 0.015459
vt 0.562030 0.656766
vt 0.553810 0.973451
vt 0.458308 0.900586
vt 0.562030 0.657342
vt 0.489240 0.015459
vt 0.998513 0.505125
vt 0.631013 0.505125
vt 0.631013 0.505125
vt 0.558308 0.657342
vt 0.489375 0.015459
vt 0.489240 0.015459
vt 0.562030 0.657342
vt 0.631013 0.505125
vt 0.998513 0.505125
vt 0.631013 0.505125
vt 0.489375 0.015459
vt 0.558308 0.657342
vn 0.0000 1.0000 -0.0000
vn -0.0000 -0.6885 0.7252
vn 0.0000 0.7243 0.6895
vn 0.3247 -0.3525 0.8777
vn -0.6055 0.6161 0.5038
vn -0.6053 0.6163 0.5038
vn -0.6056 0.6161 -0.5037
vn 0.0000 0.7243 -0.6895
vn -0.6055 0.6161 -0.5038
vn 0.3247 -0.3525 -0.8777
vn 0.0000 -0.6885 -0.7252
vn -0.8573 -0.0840 -0.5079
vn 0.8159 -0.0944 -0.5704
vn -0.8573 -0.0840 0.5079
vn 0.8159 -0.0944 0.5704
vn 0.3250 -0.3521 -0.8777
vn 0.3248 -0.3525 0.8777
vn -0.8159 -0.0944 -0.5704
vn 0.8573 -0.0840 -0.5079
vn -0.8159 -0.0944 0.5704
vn 0.8573 -0.0840 0.5079
vn -0.8574 -0.0841 -0.5078
vn -0.8574 -0.0841 0.5078
vn 0.6055 0.6161 -0.5038
vn 0.8574 -0.0841 -0.5078
vn -0.3247 -0.3525 -0.8777
vn 0.6054 0.6162 -0.5038
vn 0.6057 0.6160 0.5037
vn 0.8574 -0.0841 0.5078
vn 0.6055 0.6161 0.5038
vn -0.3247 -0.3525 0.8777
vn -0.3244 -0.3527 -0.8777
vn -0.0000 -0.6195 0.7850
vn 0.0000 -0.1541 0.9881
vn -0.7183 -0.4682 0.5147
vn -0.7854 -0.1845 0.5909
vn 0.7294 0.4593 -0.5070
vn -0.0000 0.6106 -0.7919
vn 0.8742 0.4856 -0.0000
vn -0.7854 -0.1845 -0.5909
vn 0.0000 -0.1541 -0.9881
vn -0.7183 -0.4682 -0.5147
vn 0.0000 -0.6195 -0.7850
vn -0.8645 -0.5026 0.0000
vn 0.0000 -1.0000 0.0000
vn -0.7183 -0.4682 0.5146
vn 0.8645 -0.5026 0.0000
vn 0.9932 -0.1168 0.0000
vn 0.7183 -0.4682 0.5146
vn 0.7854 -0.1845 0.5909
vn -0.9932 -0.1168 0.0000
vn 0.7917 0.1937 -0.5794
vn 0.0000 0.1625 -0.9867
vn 0.0000 0.6106 -0.7920
vn -0.7917 0.1937 -0.5794
vn -0.9924 0.1232 -0.0000
vn -0.7294 0.4593 -0.5070
vn -0.8741 0.4857 -0.0000
vn 0.7917 0.1937 0.5794
vn 0.7294 0.4593 0.5070
vn 0.0000 0.1625 0.9867
vn -0.0000 0.6106 0.7920
vn 0.9924 0.1232 -0.0000
vn 0.8741 0.4857 0.0000
vn -0.8742 0.4856 0.0000
vn -0.7917 0.1937 0.5794
vn -0.7294 0.4593 0.5070
vn 0.7183 -0.4682 -0.5147
vn 0.7854 -0.1845 -0.5909
vn 0.7183 -0.4682 0.5147
vn 0.0000 0.6106 0.7919
vn -0.7183 -0.4682 -0.5146
vn 0.7183 -0.4682 -0.5146
usemtl obj_m_mat.001
s off
f 75/1/1 76/2/1 77/3/1
f 77/3/1 76/2/1 78/4/1
f 79/5/1 80/6/1 81/7/1
f 81/7/1 80/6/1 82/8/1
f 83/9/1 84/10/1 85/11/1
f 85/11/1 84/10/1 86/12/1
f 87/13/1 88/14/1 89/15/1
f 89/15/1 88/14/1 90/16/1
f 107/17/1 108/18/1 76/2/1
f 76/2/1 108/18/1 78/4/1
f 115/19/1 85/11/1 116/20/1
f 116/20/1 85/11/1 86/12/1
f 132/21/1 89/15/1 133/22/1
f 133/22/1 89/15/1 90/16/1
f 82/8/1 80/6/1 141/23/1
f 141/23/1 80/6/1 142/24/1
s 1
f 1/25/2 2/26/3 3/27/4
f 3/27/4 2/26/3 4/28/5
f 5/29/6 6/30/3 7/31/7
f 7/31/7 6/30/3 8/32/8
f 9/33/9 10/34/8 11/35/10
f 11/35/10 10/34/8 12/36/11
f 13/37/12 14/38/13 15/39/14
f 15/39/14 14/38/13 16/40/15
f 17/41/16 18/42/11 19/43/17
f 19/43/17 18/42/11 20/44/2
f 21/45/18 22/46/19 23/47/20
f 23/47/20 22/46/19 24/48/21
f 25/49/9 26/50/10 27/51/22
f 27/51/22 26/50/10 28/52/13
f 17/41/16 19/43/17 29/53/13
f 29/53/13 19/43/17 30/54/15
f 4/28/5 31/55/23 3/27/4
f 3/27/4 31/55/23 32/56/15
f 5/29/6 7/31/7 33/57/23
f 33/57/23 7/31/7 34/58/22
f 35/59/24 36/60/25 37/61/26
f 37/61/26 36/60/25 38/62/18
f 39/63/27 40/64/28 41/65/25
f 41/65/25 40/64/28 42/66/29
f 43/67/30 44/68/31 45/69/29
f 45/69/29 44/68/31 46/70/20
f 47/71/31 48/72/32 49/73/20
f 49/73/20 48/72/32 50/74/18
f 51/75/33 52/76/34 53/77/35
f 53/77/35 52/76/34 54/78/36
f 55/79/37 56/80/38 57/81/39
f 57/81/39 56/80/38 58/82/1
f 59/83/40 60/84/41 61/85/42
f 61/85/42 60/84/41 62/86/43
f 63/87/44 64/88/45 65/89/46
f 65/89/46 64/88/45 66/90/33
f 67/91/47 68/92/48 69/93/49
f 69/93/49 68/92/48 70/94/50
f 71/95/44 72/96/46 73/97/51
f 73/97/51 72/96/46 74/98/36
f 91/99/52 92/100/53 93/101/37
f 93/101/37 92/100/53 94/102/54
f 95/103/55 96/104/56 97/105/57
f 97/105/57 96/104/56 98/106/58
f 99/107/59 100/108/60 101/109/61
f 101/109/61 100/108/60 102/110/62
f 103/111/52 104/112/37 105/113/63
f 105/113/63 104/112/37 106/114/64
f 94/102/54 92/100/53 109/115/57
f 109/115/57 92/100/53 110/116/55
f 58/82/1 56/80/38 111/117/65
f 111/117/65 56/80/38 112/118/57
f 113/119/66 101/109/61 114/120/67
f 114/120/67 101/109/61 102/110/62
f 62/86/43 60/84/41 117/121/68
f 117/121/68 60/84/41 118/122/69
f 66/90/33 64/88/45 119/123/49
f 119/123/49 64/88/45 120/124/47
f 51/75/33 121/125/70 52/76/34
f 52/76/34 121/125/70 122/126/50
f 6/30/3 40/64/28 8/32/8
f 8/32/8 40/64/28 39/63/27
f 12/36/11 10/34/8 123/127/26
f 123/127/26 10/34/8 124/128/24
f 20/44/2 18/42/11 47/71/31
f 47/71/31 18/42/11 48/72/32
f 1/25/2 44/68/31 2/26/3
f 2/26/3 44/68/31 43/67/30
f 125/129/66 126/130/67 96/104/56
f 96/104/56 126/130/67 98/106/58
f 127/131/71 58/82/1 128/132/67
f 128/132/67 58/82/1 111/117/65
f 57/81/39 58/82/1 129/133/60
f 129/133/60 58/82/1 127/131/71
f 130/134/59 105/113/63 131/135/60
f 131/135/60 105/113/63 106/114/64
f 71/95/44 73/97/51 134/136/72
f 134/136/72 73/97/51 135/137/40
f 136/138/72 137/139/43 63/87/44
f 63/87/44 137/139/43 64/88/45
f 120/124/47 64/88/45 138/140/73
f 138/140/73 64/88/45 137/139/43
f 67/91/47 139/141/73 68/92/48
f 68/92/48 139/141/73 140/142/69
